<?xml version="1.0" encoding="UTF-8"?>
<svg version="1.1" xmlns="http://www.w3.org/2000/svg" width="592" height="588">
<path d="M0 0 C195.36 0 390.72 0 592 0 C592 194.04 592 388.08 592 588 C396.64 588 201.28 588 0 588 C0 393.96 0 199.92 0 0 Z " fill="#000000" transform="translate(0,0)"/>
<path d="M0 0 C0 54.78 0 109.56 0 166 C11.55 166 23.1 166 35 166 C35 117.82 35 69.64 35 20 C42.25606619 23.95785429 49.49349184 27.93260625 56.6875 32 C57.67661377 32.55905029 58.66572754 33.11810059 59.68481445 33.6940918 C67.71574518 38.24619784 75.69248125 42.88724494 83.65820312 47.55224609 C94.94040708 54.15171711 106.29668439 60.6203251 117.65283203 67.09130859 C120.89390901 68.9395026 124.13295301 70.79119839 127.37109375 72.64453125 C128.34731689 73.20317871 129.32354004 73.76182617 130.3293457 74.33740234 C132.14707009 75.37778009 133.96462501 76.418454 135.78198242 77.45947266 C136.57838135 77.91499512 137.37478027 78.37051758 138.1953125 78.83984375 C139.23196045 79.43333618 139.23196045 79.43333618 140.28955078 80.03881836 C141.50913355 80.72415912 142.74873693 81.37436846 144 82 C144 137.44 144 192.88 144 250 C136.41 254.29 128.82 258.58 121 263 C114.40082279 266.86773928 114.40082279 266.86773928 107.8125 270.75390625 C104.37326403 272.78672811 100.91062092 274.77549736 97.4375 276.75 C91.07578181 280.368592 84.7554224 284.05554147 78.4375 287.75 C70.81399101 292.20658346 63.17430768 296.63146884 55.5 301 C47.97164089 305.28553903 40.47757538 309.62647051 33 314 C25.03754077 318.65430009 17.06351335 323.28723769 9.0625 327.875 C8.16208984 328.39320313 7.26167969 328.91140625 6.33398438 329.4453125 C5.51349609 329.91453125 4.69300781 330.38375 3.84765625 330.8671875 C2.7649646 331.48762939 2.7649646 331.48762939 1.66040039 332.12060547 C0 333 0 333 -1 333 C-1 277.89 -1 222.78 -1 166 C-12.55 166 -24.1 166 -36 166 C-36 214.18 -36 262.36 -36 312 C-49.64944795 305.17527603 -49.64944795 305.17527603 -55.625 301.5625 C-57.08656818 300.6915806 -58.54885737 299.82187049 -60.01171875 298.953125 C-61.19773682 298.24833008 -61.19773682 298.24833008 -62.40771484 297.52929688 C-67.39604235 294.58647492 -72.41854408 291.70266469 -77.4375 288.8125 C-78.54367676 288.17513916 -79.64985352 287.53777832 -80.78955078 286.88110352 C-83.06123665 285.57237584 -85.33304755 284.26386516 -87.60498047 282.95556641 C-93.07169984 279.80667944 -98.53572185 276.6531206 -104 273.5 C-106.13541417 272.26822484 -108.27083085 271.03645403 -110.40625 269.8046875 C-114.43510856 267.48043948 -118.46330491 265.15505139 -122.49072266 262.82830811 C-124.91047665 261.43041399 -127.33047263 260.03293911 -129.75048828 258.63549805 C-131.46801052 257.64347676 -133.18518052 256.65084571 -134.90234375 255.65820312 C-135.93488281 255.06201172 -136.96742188 254.46582031 -138.03125 253.8515625 C-138.94455078 253.32385254 -139.85785156 252.79614258 -140.79882812 252.25244141 C-142.17988691 251.46663489 -143.57878495 250.71060752 -145 250 C-145.303838 228.36451936 -145.53300012 206.72939096 -145.67355824 185.09220886 C-145.74056083 175.0452844 -145.83188319 164.99968628 -145.98071289 154.95361328 C-146.11039042 146.19613699 -146.19417931 137.43962118 -146.22315043 128.68121147 C-146.24008452 124.04411776 -146.27979335 119.40977135 -146.37449074 114.77355957 C-146.46297527 110.40598845 -146.48991034 106.04228483 -146.47039986 101.67390251 C-146.47396647 100.07416661 -146.4997043 98.47429695 -146.54967117 96.8753376 C-146.69384704 92.02217802 -146.6183208 87.64401198 -145 83 C-141.03455632 79.2532207 -137.00195069 77.20480562 -132 75 C-130.68134285 74.2651708 -129.3703043 73.51613381 -128.07421875 72.7421875 C-126.95660156 72.12601562 -125.83898437 71.50984375 -124.6875 70.875 C-117.88230738 67.09273845 -111.15435979 63.18672753 -104.4375 59.25 C-96.35090572 54.51329181 -88.23074596 49.84446779 -80.0625 45.25 C-72.89373224 41.21651744 -65.76314277 37.13150418 -58.68603516 32.93945312 C-51.20017346 28.510949 -43.65955711 24.17809451 -36.11987305 19.84204102 C-30.42056378 16.56132695 -24.73248055 13.26346627 -19.06640625 9.92578125 C-17.96304932 9.27706055 -16.85969238 8.62833984 -15.72290039 7.95996094 C-13.60925496 6.7155664 -11.49768499 5.46763843 -9.38842773 4.21582031 C-8.44555908 3.66120117 -7.50269043 3.10658203 -6.53125 2.53515625 C-5.70173828 2.044104 -4.87222656 1.55305176 -4.01757812 1.04711914 C-2 0 -2 0 0 0 Z " fill="#FBFBFB" transform="translate(296,128)"/>
<path d="M0 0 C0 33.99 0 67.98 0 103 C-11.88 103 -23.76 103 -36 103 C-36 130.39 -36 157.78 -36 186 C-49.73023256 179.13488372 -49.73023256 179.13488372 -55.6875 175.4375 C-59.6603191 172.99436922 -63.65162176 170.61728616 -67.73364258 168.35961914 C-68.53522293 167.91582413 -69.33680328 167.47202911 -70.16267395 167.01478577 C-71.07215034 166.51246681 -71.07215034 166.51246681 -72 166 C-72.21035214 149.80584571 -72.36900114 133.61213526 -72.46630955 117.4169445 C-72.51269527 109.89696428 -72.57591836 102.37783342 -72.67895508 94.85839844 C-72.76873243 88.30347663 -72.82673998 81.7491699 -72.84679645 75.19365036 C-72.8585195 71.7229491 -72.88601068 68.25400721 -72.95157051 64.7838707 C-73.02420935 60.90750211 -73.02590484 57.03284579 -73.02172852 53.15576172 C-73.054086 52.00849106 -73.08644348 50.8612204 -73.11978149 49.67918396 C-73.0309428 42.06758409 -73.0309428 42.06758409 -70.06735039 38.99866104 C-67.76980984 37.44073569 -65.50258621 36.19471824 -63 35 C-61.67164831 34.24682632 -60.34664906 33.48765982 -59.02734375 32.71875 C-57.66571905 31.97612125 -56.30236056 31.23666473 -54.9375 30.5 C-47.57730108 26.46846338 -40.30483574 22.30194417 -33.0625 18.0625 C-31.54910034 17.17763916 -31.54910034 17.17763916 -30.00512695 16.27490234 C-26.03800227 13.95381743 -22.07233738 11.63028582 -18.10986328 9.30126953 C-15.45036501 7.73885497 -12.78794352 6.18153278 -10.125 4.625 C-9.32843994 4.15457275 -8.53187988 3.68414551 -7.71118164 3.19946289 C-2.22682217 0 -2.22682217 0 0 0 Z " fill="#010101" transform="translate(259,191)"/>
<path d="M0 0 C3.85886661 1.54354665 7.18693035 3.12892911 10.78125 5.15234375 C11.87050781 5.76400391 12.95976562 6.37566406 14.08203125 7.00585938 C15.20996094 7.64330078 16.33789062 8.28074219 17.5 8.9375 C18.62792969 9.57107422 19.75585938 10.20464844 20.91796875 10.85742188 C23.95005301 12.56364207 26.98090113 14.27090381 30 16 C31.3000071 16.63557972 31.3000071 16.63557972 32.62627697 17.28399944 C35 19 35 19 35.68227863 21.29782581 C35.70884131 22.2060443 35.735404 23.11426279 35.76277161 24.05000305 C35.80432877 25.09407822 35.84588593 26.13815338 35.88870239 27.21386719 C35.90843109 28.35927979 35.92815979 29.50469238 35.94848633 30.68481445 C35.98776749 31.89171432 36.02704865 33.0986142 36.06752014 34.34208679 C36.18677397 38.3490979 36.26506307 42.3551526 36.33203125 46.36328125 C36.35753089 47.74699827 36.38315793 49.13071295 36.40891075 50.51442528 C36.51232944 56.27810836 36.60171577 62.0417134 36.65414906 67.80610371 C36.72947263 76.04316257 36.88580971 84.26915751 37.15911657 92.5021041 C37.34504828 98.30361645 37.4371137 104.10220617 37.46147555 109.90661973 C37.4783502 113.36830211 37.5340244 116.81835968 37.69034767 120.27678871 C38.43750583 137.6480119 38.43750583 137.6480119 35 145 C29.19662921 151.20370278 21.58489762 154.58275736 13.84589577 157.78674126 C10.05869602 159.40129554 6.65214668 161.3911392 3.12890625 163.515625 C0.94069452 164.76145414 -1.24808902 166.00627961 -3.4375 167.25 C-12.07924839 172.16484149 -20.69908026 177.11080618 -29.20483398 182.25878906 C-33.78610974 185 -33.78610974 185 -36 185 C-36 151.01 -36 117.02 -36 82 C-24.12 82 -12.24 82 0 82 C0 54.94 0 27.88 0 0 Z " fill="#000000" transform="translate(368,212)"/>
</svg>
