<?xml version="1.0" encoding="UTF-8"?>
<svg version="1.1" xmlns="http://www.w3.org/2000/svg" width="200" height="200">
<path d="M0 0 C66 0 132 0 200 0 C200 66 200 132 200 200 C134 200 68 200 0 200 C0 134 0 68 0 0 Z " fill="#BFCED6" transform="translate(0,0)"/>
<path d="M0 0 C1.32 0.33 2.64 0.66 4 1 C4 1.66 4 2.32 4 3 C6.97 3.495 6.97 3.495 10 4 C10 4.66 10 5.32 10 6 C10.99 6 11.98 6 13 6 C13 6.66 13 7.32 13 8 C14.3303125 8.433125 14.3303125 8.433125 15.6875 8.875 C18.50382424 9.83148748 21.25083156 10.86798946 24 12 C24 12.66 24 13.32 24 14 C24.886875 14.28875 25.77375 14.5775 26.6875 14.875 C34.81818182 17.63636364 34.81818182 17.63636364 36 20 C36.09587524 21.77658359 36.12795655 23.55676936 36.12939453 25.3359375 C36.13254669 26.45049316 36.13569885 27.56504883 36.13894653 28.71337891 C36.1369223 29.92171387 36.13489807 31.13004883 36.1328125 32.375 C36.13376923 33.61040527 36.13472595 34.84581055 36.13571167 36.11865234 C36.13656804 39.40586084 36.13253344 42.69302236 36.12695312 45.98022461 C36.12500203 47.99789941 36.12694592 50.01553072 36.13037109 52.03320312 C36.13652992 55.89715613 36.13580484 59.76104435 36.1328125 63.625 C36.13483673 64.83333496 36.13686096 66.04166992 36.13894653 67.28662109 C36.13421829 68.95845459 36.13421829 68.95845459 36.12939453 70.6640625 C36.12859894 71.64842285 36.12780334 72.6327832 36.12698364 73.64697266 C36 76 36 76 35 78 C33.29296875 78.74609375 33.29296875 78.74609375 31.1875 79.4375 C27.98361667 80.56086518 25.65659561 81.85428816 23 84 C22.34 84 21.68 84 21 84 C21 84.66 21 85.32 21 86 C19.5437455 86.67119549 18.08492133 87.33681807 16.625 88 C15.81289062 88.37125 15.00078125 88.7425 14.1640625 89.125 C12 90 12 90 10 90 C10 90.66 10 91.32 10 92 C8.5437455 92.67119549 7.08492133 93.33681807 5.625 94 C4.81289062 94.37125 4.00078125 94.7425 3.1640625 95.125 C1 96 1 96 -1 96 C-1 96.66 -1 97.32 -1 98 C-6.75 101 -6.75 101 -9 101 C-9 101.66 -9 102.32 -9 103 C-9.99 103 -10.98 103 -12 103 C-12 84.85 -12 66.7 -12 48 C-8.04 48 -4.08 48 0 48 C0 32.16 0 16.32 0 0 Z " fill="#0A0C0E" transform="translate(112,52)"/>
<path d="M0 0 C0.99 0 1.98 0 3 0 C3 18.15 3 36.3 3 55 C-0.63 55 -4.26 55 -8 55 C-8 43.78 -8 32.56 -8 21 C-10.97 21.495 -10.97 21.495 -14 22 C-14 22.66 -14 23.32 -14 24 C-15.65 24.33 -17.3 24.66 -19 25 C-19 25.66 -19 26.32 -19 27 C-20.98 27.33 -22.96 27.66 -25 28 C-25 28.66 -25 29.32 -25 30 C-26.65 30.33 -28.3 30.66 -30 31 C-30 31.66 -30 32.32 -30 33 C-30.99 33 -31.98 33 -33 33 C-33 47.52 -33 62.04 -33 77 C-32.01 77 -31.02 77 -30 77 C-30 77.66 -30 78.32 -30 79 C-25.545 79.99 -25.545 79.99 -21 81 C-21 72.42 -21 63.84 -21 55 C-17.37 55 -13.74 55 -10 55 C-10 70.51 -10 86.02 -10 102 C-13.1921126 101.20197185 -15.98155093 100.25768711 -19 99 C-19 98.34 -19 97.68 -19 97 C-21.65228812 95.92474806 -24.28368454 94.90543849 -27 94 C-27.495 93.01 -27.495 93.01 -28 92 C-29.64034193 91.27095914 -31.31301918 90.61344757 -33 90 C-37.88888889 88.22222222 -37.88888889 88.22222222 -39 86 C-39.99 85.67 -40.98 85.34 -42 85 C-42 84.34 -42 83.68 -42 83 C-42.99 83 -43.98 83 -45 83 C-45.02314782 75.73305527 -45.04092756 68.46611846 -45.05181217 61.19914436 C-45.05703565 57.82496974 -45.06412361 54.45082029 -45.07543945 51.07666016 C-45.08752436 47.19953741 -45.09323263 43.3224506 -45.09765625 39.4453125 C-45.10281754 38.23070343 -45.10797882 37.01609436 -45.11329651 35.76467896 C-45.11340981 34.08316238 -45.11340981 34.08316238 -45.11352539 32.36767578 C-45.115746 31.37728302 -45.11796661 30.38689026 -45.12025452 29.3664856 C-45 27 -45 27 -44 25 C-41.4375 24.375 -41.4375 24.375 -39 24 C-39 23.34 -39 22.68 -39 22 C-33.375 19 -33.375 19 -30 19 C-30 18.34 -30 17.68 -30 17 C-28.35 16.67 -26.7 16.34 -25 16 C-25 15.34 -25 14.68 -25 14 C-23.02 13.67 -21.04 13.34 -19 13 C-19 12.34 -19 11.68 -19 11 C-17.35 10.67 -15.7 10.34 -14 10 C-14 9.34 -14 8.68 -14 8 C-13.01 8 -12.02 8 -11 8 C-11 7.34 -11 6.68 -11 6 C-8.03 5.34 -5.06 4.68 -2 4 C-2 3.34 -2 2.68 -2 2 C-1.34 2 -0.68 2 0 2 C0 1.34 0 0.68 0 0 Z " fill="#07090B" transform="translate(97,45)"/>
<path d="M0 0 C1.32 0 2.64 0 4 0 C4 10.89 4 21.78 4 33 C0.37 33 -3.26 33 -7 33 C-7 41.58 -7 50.16 -7 59 C-9.97 58.34 -12.94 57.68 -16 57 C-16 56.34 -16 55.68 -16 55 C-16.99 55 -17.98 55 -19 55 C-19 40.48 -19 25.96 -19 11 C-18.01 11 -17.02 11 -16 11 C-16 10.34 -16 9.68 -16 9 C-14.35 8.67 -12.7 8.34 -11 8 C-11 7.34 -11 6.68 -11 6 C-9.02 5.67 -7.04 5.34 -5 5 C-5 4.34 -5 3.68 -5 3 C-3.35 2.67 -1.7 2.34 0 2 C0 1.34 0 0.68 0 0 Z " fill="#CBD6DB" transform="translate(83,67)"/>
<path d="M0 0 C1.65 0.33 3.3 0.66 5 1 C5 1.66 5 2.32 5 3 C7.97 3.495 7.97 3.495 11 4 C11 18.52 11 33.04 11 48 C10.01 48 9.02 48 8 48 C8 48.66 8 49.32 8 50 C6.865625 50.28875 5.73125 50.5775 4.5625 50.875 C3.386875 51.24625 2.21125 51.6175 1 52 C0.67 52.66 0.34 53.32 0 54 C-0.99 54 -1.98 54 -3 54 C-3 54.66 -3 55.32 -3 56 C-5.97 56.495 -5.97 56.495 -9 57 C-9 57.66 -9 58.32 -9 59 C-9.99 59 -10.98 59 -12 59 C-12 48.11 -12 37.22 -12 26 C-8.04 26 -4.08 26 0 26 C0 17.42 0 8.84 0 0 Z " fill="#C6D0D4" transform="translate(125,74)"/>
<path d="M0 0 C0.66 0 1.32 0 2 0 C2 14.52 2 29.04 2 44 C1.01 44 0.02 44 -1 44 C-1 44.66 -1 45.32 -1 46 C-1.99 45.67 -2.98 45.34 -4 45 C-3.34 44.01 -2.68 43.02 -2 42 C-1.01 42 -0.02 42 1 42 C0.505 21.21 0.505 21.21 0 0 Z " fill="#A9B0B3" transform="translate(134,78)"/>
<path d="M0 0 C0.66 0.33 1.32 0.66 2 1 C1.21625 1.7425 0.4325 2.485 -0.375 3.25 C-3.00612679 5.73654809 -3.00612679 5.73654809 -4.125 8.25 C-4.41375 8.8275 -4.7025 9.405 -5 10 C-5.99 10.33 -6.98 10.66 -8 11 C-8.33 10.01 -8.66 9.02 -9 8 C-9.99 7.67 -10.98 7.34 -12 7 C-9 5 -9 5 -6 5 C-6 4.34 -6 3.68 -6 3 C-4.03533587 1.93224776 -2.03144641 0.93446535 0 0 Z " fill="#A1ABB3" transform="translate(117,145)"/>
<path d="M0 0 C1.65 0.33 3.3 0.66 5 1 C4.34 2.32 3.68 3.64 3 5 C2.34 5 1.68 5 1 5 C1 5.66 1 6.32 1 7 C-0.32 6.67 -1.64 6.34 -3 6 C-2.67 5.34 -2.34 4.68 -2 4 C-1.34 4 -0.68 4 0 4 C0 2.68 0 1.36 0 0 Z " fill="#CDD2D6" transform="translate(66,57)"/>
<path d="M0 0 C0.33 0.66 0.66 1.32 1 2 C-0.32 2.33 -1.64 2.66 -3 3 C-3.33 4.32 -3.66 5.64 -4 7 C-5.65 6.67 -7.3 6.34 -9 6 C-3.85714286 0.42857143 -3.85714286 0.42857143 0 0 Z " fill="#919DA2" transform="translate(144,130)"/>
<path d="M0 0 C0 0.66 0 1.32 0 2 C-0.66 2 -1.32 2 -2 2 C-2 2.66 -2 3.32 -2 4 C-2.66 4 -3.32 4 -4 4 C-4 4.66 -4 5.32 -4 6 C-4.66 6 -5.32 6 -6 6 C-6.33 6.66 -6.66 7.32 -7 8 C-7 7.34 -7 6.68 -7 6 C-7.99 6 -8.98 6 -10 6 C-10 5.34 -10 4.68 -10 4 C-8.02 3.67 -6.04 3.34 -4 3 C-4 2.34 -4 1.68 -4 1 C-2 0 -2 0 0 0 Z " fill="#AAB2B8" transform="translate(82,69)"/>
<path d="M0 0 C0.99 0 1.98 0 3 0 C2.67 1.65 2.34 3.3 2 5 C1.21625 5.12375 0.4325 5.2475 -0.375 5.375 C-3.14057822 5.79117993 -3.14057822 5.79117993 -5 8 C-4.67 6.68 -4.34 5.36 -4 4 C-3.34 4 -2.68 4 -2 4 C-2 3.34 -2 2.68 -2 2 C-1.34 2 -0.68 2 0 2 C0 1.34 0 0.68 0 0 Z " fill="#AFBDC2" transform="translate(147,128)"/>
<path d="M0 0 C2.97 0.495 2.97 0.495 6 1 C6 2.65 6 4.3 6 6 C5.01 5.67 4.02 5.34 3 5 C3 4.34 3 3.68 3 3 C2.01 3 1.02 3 0 3 C0 2.01 0 1.02 0 0 Z " fill="#AEB3B6" transform="translate(122,55)"/>
<path d="M0 0 C1.65 0 3.3 0 5 0 C4.2884375 0.556875 4.2884375 0.556875 3.5625 1.125 C1.47794198 3.62646962 1.35378509 5.81593418 1 9 C0.67 9 0.34 9 0 9 C0 6.03 0 3.06 0 0 Z " fill="#D5DBDE" transform="translate(89,100)"/>
</svg>