<?xml version="1.0" encoding="UTF-8"?>
<svg version="1.1" xmlns="http://www.w3.org/2000/svg" width="2056" height="575">
<path d="M0 0 C0 94.38 0 188.76 0 286 C20.13 286 40.26 286 61 286 C61 203.17 61 120.34 61 35 C64.86349391 36.54539756 68.12420698 38.11206551 71.69921875 40.16796875 C72.81264648 40.80621582 73.92607422 41.44446289 75.07324219 42.10205078 C76.27804914 42.79710633 77.48280029 43.4922586 78.6875 44.1875 C79.94288672 44.90894749 81.19842292 45.63013494 82.45410156 46.35107422 C85.68120292 48.2050294 88.90596414 50.06301465 92.13006592 51.92218018 C93.90920925 52.94766871 95.68904049 53.97194872 97.46923828 54.99560547 C109.99539379 62.19846768 122.49408101 69.44706836 134.97070312 76.73535156 C151.89137443 86.6140539 168.88254254 96.36916381 185.90216064 106.07608032 C194.96971811 111.2494443 204.00325733 116.47858639 213.01245117 121.75292969 C218.41029488 124.91153683 223.81729267 128.05321037 229.23828125 131.171875 C229.84122009 131.51886948 230.44415894 131.86586395 231.06536865 132.22337341 C234.00536769 133.91489091 236.94653173 135.60431654 239.88916016 137.29125977 C240.93507324 137.89252686 241.98098633 138.49379395 243.05859375 139.11328125 C243.98986084 139.64735596 244.92112793 140.18143066 245.88061523 140.73168945 C248 142 248 142 249 143 C249.10852964 144.52991022 249.14760949 146.06479423 249.15936089 147.59850407 C249.17437309 149.09891714 249.17437309 149.09891714 249.18968856 150.62964159 C249.19862064 152.29797656 249.19862064 152.29797656 249.20773315 154.00001526 C249.21775993 155.17128824 249.22778672 156.34256122 249.23811734 157.54932731 C249.26477194 160.81526295 249.28678041 164.08119134 249.30663323 167.34717429 C249.32440283 170.14496743 249.34582795 172.94272814 249.36717294 175.74049593 C249.5684813 202.26627871 249.6720293 228.79286264 249.75568962 255.31924534 C249.76677816 258.77378467 249.77807039 262.22832327 249.78955078 265.68286133 C249.79239532 266.5414944 249.79523985 267.40012747 249.79817058 268.28477972 C249.84563418 282.18920168 249.94192782 296.09286291 250.05712186 309.99687064 C250.17436681 324.26671282 250.24235928 338.53615961 250.26382077 352.80647129 C250.27722547 360.8210468 250.31299468 368.83420656 250.405056 376.84829903 C250.48346844 383.67537907 250.5179716 390.50087823 250.4950311 397.32840205 C250.48472033 400.81216707 250.49541661 404.29249949 250.56312943 407.7756958 C250.89969629 428.15860134 250.89969629 428.15860134 247.75706911 432.85906672 C244.33923066 436.14066977 240.46084363 437.49430634 236 439 C233.81652722 440.21015642 231.65267423 441.45708979 229.51953125 442.75390625 C227.28500298 444.02545846 225.04928614 445.29492382 222.8125 446.5625 C220.34182403 447.96765477 217.87211894 449.37451273 215.40234375 450.78125 C214.78224426 451.13417618 214.16214478 451.48710236 213.52325439 451.85072327 C207.29361915 455.39784056 201.0824978 458.97679664 194.875 462.5625 C193.81128174 463.17681885 192.74756348 463.7911377 191.65161133 464.42407227 C189.50690413 465.66292223 187.3622912 466.90193541 185.21777344 468.14111328 C179.81329355 471.26324605 174.40652588 474.38141204 169 477.5 C166.8333225 478.74998122 164.66665583 479.99998121 162.5 481.25 C123.50000001 503.74999999 123.50000001 503.74999999 120.24951172 505.62524414 C118.08442929 506.87435518 115.91939018 508.12354129 113.75439453 509.37280273 C108.31384294 512.51202309 102.87252784 515.64990563 97.4296875 518.78515625 C86.97793801 524.80747329 76.53700452 530.84669337 66.125 536.9375 C56.86283987 542.3546278 47.55902137 547.69601646 38.23471069 553.00512695 C31.80268717 556.66774031 25.38194136 560.34717077 18.99609375 564.08984375 C17.89072266 564.73759766 16.78535156 565.38535156 15.64648438 566.05273438 C13.55378366 567.2818617 11.46256339 568.51351417 9.37304688 569.74804688 C8.44427734 570.29396484 7.51550781 570.83988281 6.55859375 571.40234375 C5.74704834 571.88179443 4.93550293 572.36124512 4.09936523 572.85522461 C2 574 2 574 -1 575 C-1 479.96 -1 384.92 -1 287 C-21.13 287 -41.26 287 -62 287 C-62 369.83 -62 452.66 -62 538 C-66.38578387 536.90355403 -69.85662369 535.01643521 -73.75 532.8125 C-74.53439453 532.37252686 -75.31878906 531.93255371 -76.12695312 531.47924805 C-84.69498363 526.65016092 -93.17743241 521.67331345 -101.6640625 516.703125 C-108.05281992 512.96365411 -114.46116076 509.25874966 -120.875 505.5625 C-121.95458984 504.94028564 -123.03417969 504.31807129 -124.14648438 503.67700195 C-126.3368252 502.41488483 -128.52725502 501.15292215 -130.71777344 499.89111328 C-136.14659942 496.76319852 -141.57319281 493.63141552 -147 490.5 C-149.16665583 489.24998121 -151.3333225 487.99998122 -153.5 486.75 C-166.5 479.25 -179.5 471.75 -192.5 464.25 C-193.57362793 463.63060547 -194.64725586 463.01121094 -195.75341797 462.37304688 C-197.90871311 461.1295949 -200.06398673 459.88610564 -202.21923828 458.64257812 C-207.22337674 455.75537125 -212.2277052 452.8684957 -217.23284912 449.98303223 C-218.98341241 448.97380896 -220.73390411 447.96446164 -222.484375 446.95507812 C-224.66392165 445.6983234 -226.84359832 444.44179414 -229.0234375 443.18554688 C-230.97228627 442.06169401 -232.90734156 440.91338299 -234.8238945 439.73529911 C-237.90098464 437.90436837 -237.90098464 437.90436837 -241.1577034 437.09043789 C-244.95852187 435.75017367 -247.78536802 434.39973311 -250 431 C-252.27421994 422.95562177 -251.54540096 414.1113083 -251.39278746 405.83915961 C-251.34085489 402.3102849 -251.35850963 398.78166715 -251.36761475 395.2525177 C-251.37390056 389.14219052 -251.336326 383.03340352 -251.26876068 376.92346382 C-251.17113997 368.08985056 -251.1399744 359.25698032 -251.12490478 350.42288613 C-251.09865551 336.0898517 -251.0188372 321.75763783 -250.90527344 307.42504883 C-250.79508687 293.5041921 -250.71016529 279.58355841 -250.65917969 265.66235352 C-250.65602701 264.80393785 -250.65287432 263.94552219 -250.64962611 263.06109393 C-250.6339654 258.75457726 -250.61880097 254.448059 -250.60388327 250.14153969 C-250.47952732 214.42710822 -250.26821038 178.71362986 -250 143 C-139.5 79.25 -139.5 79.25 -136.24951172 77.37475586 C-134.08442929 76.12564482 -131.91939018 74.87645871 -129.75439453 73.62719727 C-124.31384294 70.48797691 -118.87252784 67.35009437 -113.4296875 64.21484375 C-102.97793801 58.19252671 -92.53700452 52.15330663 -82.125 46.0625 C-73.4473735 40.98724638 -64.7337909 35.97768607 -56 31 C-47.04009698 25.89245068 -38.0970745 20.75756651 -29.1875 15.5625 C-28.20499268 14.98999512 -27.22248535 14.41749023 -26.21020508 13.82763672 C-21.87870496 11.2961016 -17.56147678 8.74633089 -13.28125 6.12890625 C-12.5797583 5.70085693 -11.8782666 5.27280762 -11.15551758 4.83178711 C-9.89102205 4.05639927 -8.63010122 3.27513454 -7.3737793 2.48657227 C-4.65732073 0.81698542 -3.25976037 0 0 0 Z M-69.96875 111.75390625 C-71.00128906 112.35332031 -72.03382813 112.95273438 -73.09765625 113.5703125 C-74.78181641 114.55644531 -74.78181641 114.55644531 -76.5 115.5625 C-77.67551594 116.24654988 -78.85130147 116.93013667 -80.02734375 117.61328125 C-82.47370926 119.03482132 -84.91889463 120.45836082 -87.36328125 121.88330078 C-92.89804993 125.10757154 -98.44981332 128.3023703 -104 131.5 C-106.1667481 132.74985884 -108.33341448 133.99985936 -110.5 135.25 C-123.5 142.75 -123.5 142.75 -126.75219727 144.6262207 C-128.91159395 145.8720577 -131.07093669 147.11798818 -133.23022461 148.36401367 C-138.75767597 151.55348953 -144.28615121 154.74116885 -149.81640625 157.92578125 C-159.58011894 163.54975836 -169.34303524 169.17477593 -179.0625 174.875 C-179.76511963 175.28596924 -180.46773926 175.69693848 -181.19165039 176.12036133 C-184.27242011 177.81992882 -184.27242011 177.81992882 -187 180 C-187.12672605 182.73777849 -187.187944 185.45133605 -187.20773315 188.19068909 C-187.21775993 189.05977919 -187.22778672 189.92886929 -187.23811734 190.82429546 C-187.27040893 193.75986907 -187.29521544 196.69545609 -187.31982422 199.63110352 C-187.34080757 201.72662104 -187.36205389 203.82213594 -187.38354492 205.91764832 C-187.57149314 225.06924928 -187.67413146 244.22172268 -187.75568962 263.37403965 C-187.81728433 277.53763155 -187.92082108 291.69963679 -188.07838428 305.86249214 C-188.18537553 315.81326112 -188.24272395 325.76359271 -188.26382077 335.71490997 C-188.27790576 341.66177522 -188.31444368 347.60656456 -188.405056 353.55279732 C-188.48947568 359.15054697 -188.51250116 364.74521974 -188.48869324 370.34352303 C-188.49067127 372.39632312 -188.51488222 374.4492423 -188.56312943 376.50147629 C-189.22822173 386.57582468 -189.22822173 386.57582468 -185.71273005 395.60386968 C-182.21252997 398.62160799 -178.28844147 400.31268687 -174 402 C-172.7413821 402.70138457 -171.49378779 403.42400339 -170.27124023 404.18652344 C-169.29356689 404.73856445 -168.31589355 405.29060547 -167.30859375 405.859375 C-165.62793823 406.81263672 -165.62793823 406.81263672 -163.91333008 407.78515625 C-162.76630615 408.43355469 -161.61928223 409.08195312 -160.4375 409.75 C-150.80136129 415.21550984 -141.23677603 420.77809188 -131.77709961 426.54589844 C-130.64413452 427.23474121 -130.64413452 427.23474121 -129.48828125 427.9375 C-128.83384033 428.33839844 -128.17939941 428.73929687 -127.50512695 429.15234375 C-126.14268042 430.08178513 -126.14268042 430.08178513 -125 430 C-125 382.81 -125 335.62 -125 287 C-104.54 287 -84.08 287 -63 287 C-63 228.26 -63 169.52 -63 109 C-65.87659558 109 -67.48758548 110.30604957 -69.96875 111.75390625 Z M125 146 C125 192.86 125 239.72 125 288 C104.21 288 83.42 288 62 288 C62 346.41 62 404.82 62 465 C80.12420582 455.11406955 98.09896803 445.00154128 115.91015625 434.5625 C122.21570611 430.86786577 128.5430753 427.21170316 134.875 423.5625 C135.94427734 422.94576416 137.01355469 422.32902832 138.11523438 421.69360352 C143.16301764 418.78325517 148.21287271 415.87659389 153.2677002 412.97850037 C155.02480482 411.97078041 156.78129524 410.9619982 158.53759766 409.95288086 C160.72745055 408.6950442 162.91844441 407.4391908 165.11083984 406.18579102 C166.11453613 405.60885498 167.11823242 405.03191895 168.15234375 404.4375 C169.4515979 403.69306641 169.4515979 403.69306641 170.77709961 402.93359375 C171.84065674 402.29550781 172.90421387 401.65742188 174 401 C174.88178075 400.66839654 175.7635615 400.33679308 176.67206287 399.99514103 C180.22088219 398.373551 182.39723266 396.93291049 185 394 C187.18534855 387.59575182 186.48127053 380.32235835 186.39160156 373.65600586 C186.40323751 371.55633043 186.41958245 369.45667661 186.4402771 367.35707092 C186.48185528 361.66226847 186.45423129 355.96972596 186.41171741 350.27500606 C186.3764052 344.31470099 186.39638727 338.35454324 186.40814209 332.3941803 C186.4190017 322.38603737 186.38487448 312.37879825 186.32421875 302.37084961 C186.25465224 290.79994873 186.25647393 279.23072153 186.2964747 267.65971845 C186.33328409 256.52748147 186.31928616 245.39586093 186.28221893 234.26364326 C186.26735911 229.52637228 186.27038913 224.78961017 186.28778839 220.052351 C186.30599834 214.4743188 186.2797698 208.8982171 186.21919632 203.32050133 C186.20409895 201.2735109 186.20429902 199.22634212 186.22089005 197.17936325 C186.78112287 186.73772094 186.78112287 186.73772094 183.02013493 177.48822975 C180.70241683 175.90942246 178.6374548 174.92009417 176 174 C174.54678345 173.13665039 174.54678345 173.13665039 173.06420898 172.25585938 C172.21673096 171.78986328 171.36925293 171.32386719 170.49609375 170.84375 C169.51906494 170.30250488 168.54203613 169.76125977 167.53540039 169.20361328 C166.51309326 168.6414209 165.49078613 168.07922852 164.4375 167.5 C154.34364174 161.90939222 144.35707084 156.16826124 134.44116211 150.26757812 C133.49249268 149.70748047 132.54382324 149.14738281 131.56640625 148.5703125 C130.73052979 148.07289551 129.89465332 147.57547852 129.03344727 147.06298828 C127.08701558 145.84557623 127.08701558 145.84557623 125 146 Z " fill="#000000" transform="translate(250,0)"/>
<path d="M0 0 C15.84 0 31.68 0 48 0 C48 37.95 48 75.9 48 115 C109.05 115 170.1 115 233 115 C233 77.05 233 39.1 233 0 C248.84 0 264.68 0 281 0 C281 89.43 281 178.86 281 271 C265.16 271 249.32 271 233 271 C233 233.05 233 195.1 233 156 C171.95 156 110.9 156 48 156 C48 193.95 48 231.9 48 271 C32.16 271 16.32 271 0 271 C0 181.57 0 92.14 0 0 Z " fill="#000000" transform="translate(580,161)"/>
<path d="M0 0 C1.00439621 0.00273422 1.00439621 0.00273422 2.02908325 0.00552368 C33.12835008 0.1471629 62.97151761 7.87182202 85.4777832 30.48510742 C108.52451207 54.73753031 109.8125 87.7145922 109.8125 119.3125 C49.4225 119.3125 -10.9675 119.3125 -73.1875 119.3125 C-67.06204742 141.3641293 -60.11262056 156.90668514 -40.55078125 168.93359375 C-29.59926071 174.92480758 -16.63836069 177.8263034 -4.1875 178.3125 C-3.35605469 178.35246094 -2.52460937 178.39242187 -1.66796875 178.43359375 C18.04934097 178.92436134 38.09686662 174.237463 52.8046875 160.53125 C57.15420793 155.72477606 59.93382749 150.06984501 62.8125 144.3125 C77.9925 144.3125 93.1725 144.3125 108.8125 144.3125 C104.16708946 162.89414217 104.16708946 162.89414217 101 168.75 C100.65308105 169.41338379 100.30616211 170.07676758 99.94873047 170.76025391 C97.09337135 176.0813088 93.88836762 180.84001586 89.8125 185.3125 C89.09707031 186.11945313 88.38164063 186.92640625 87.64453125 187.7578125 C69.72600759 206.87480185 42.90571857 216.36828212 17.09741211 217.60131836 C12.35574806 217.74640327 7.61813345 217.73461663 2.875 217.6875 C2.04521637 217.68317963 1.21543274 217.67885925 0.36050415 217.67440796 C-11.69448186 217.60088868 -23.43669359 217.23930239 -35.1875 214.3125 C-35.8789209 214.15152832 -36.5703418 213.99055664 -37.28271484 213.82470703 C-66.20471324 206.9397767 -91.1356445 190.15623285 -107.3125 165.125 C-114.03380626 153.87440484 -118.00422326 142.25509018 -120.1875 129.3125 C-120.37183594 128.26707031 -120.55617188 127.22164063 -120.74609375 126.14453125 C-124.25242996 95.70456826 -118.41130587 66.40198942 -99.35546875 42.015625 C-98.64003906 41.12359375 -97.92460938 40.2315625 -97.1875 39.3125 C-96.64738281 38.60609375 -96.10726562 37.8996875 -95.55078125 37.171875 C-81.71628266 20.02685408 -60.47408144 10.19689623 -39.6875 4.5625 C-38.96554443 4.36382324 -38.24358887 4.16514648 -37.49975586 3.96044922 C-25.18193429 0.79661126 -12.67463508 -0.05529176 0 0 Z M-57.1875 61.3125 C-63.17609335 68.29919224 -70.1875 77.7289639 -70.1875 87.3125 C-26.6275 87.3125 16.9325 87.3125 61.8125 87.3125 C60.28525486 72.04004863 55.15276328 61.22454411 43.48828125 51.265625 C13.4047095 29.30681351 -31.89021382 35.0487062 -57.1875 61.3125 Z " fill="#000000" transform="translate(1029.1875,218.6875)"/>
<path d="M0 0 C15.51 0 31.02 0 47 0 C47.01458252 3.81876709 47.02916504 7.63753418 47.04418945 11.57202148 C47.09470326 24.24067187 47.16118085 36.90919729 47.23571491 49.57772732 C47.28048576 57.25273188 47.31994228 64.92769198 47.34643555 72.6027832 C47.36956854 79.30035584 47.4031336 85.9977855 47.44870156 92.69524437 C47.47242998 96.23428869 47.49129092 99.77319323 47.49761391 103.31231499 C46.56583502 133.48678953 46.56583502 133.48678953 59.1875 159.8125 C70.66191498 170.32247062 87.05752032 172.16144748 102 172 C122.4027315 170.88454251 138.35635817 162.68779724 152.4296875 148.01953125 C156.91115252 142.75483146 160.71746622 137.09001845 164 131 C164.63000931 129.84106122 164.63000931 129.84106122 165.27274609 128.65870953 C168.85161497 121.51269693 169.72259989 115.6643572 169.65942383 107.7355957 C169.66990753 106.56356094 169.68039124 105.39152618 169.69119263 104.18397522 C169.71976927 100.34763549 169.71367097 96.5122076 169.70703125 92.67578125 C169.72015681 90.00103518 169.7352216 87.32636996 169.75285339 84.6516571 C169.7901418 78.35502568 169.8024323 72.05861013 169.8054778 65.76187915 C169.81018526 58.58632499 169.8431623 51.41098489 169.87837565 44.23552573 C169.95011094 29.49036483 169.9830647 14.74533497 170 0 C185.51 0 201.02 0 217 0 C217 68.97 217 137.94 217 209 C201.49 209 185.98 209 170 209 C169.67 188.21 169.34 167.42 169 146 C167.02 150.95 165.04 155.9 163 161 C153.27850911 182.21583883 137.73790366 200.9271589 115.4296875 209.34765625 C90.24074626 217.35188701 60.67915664 214.66447648 37 203 C19.83513481 193.32302594 8.62860366 178.90411164 3 160 C-0.80258047 143.72902189 -0.3990084 127.20001716 -0.30418181 110.60151315 C-0.28516956 106.70051967 -0.28364557 102.79951594 -0.28010559 98.89848328 C-0.27085605 91.54315403 -0.24634056 84.18796179 -0.21605712 76.83269233 C-0.18228947 68.44549 -0.16597144 60.05828043 -0.15097082 51.67102683 C-0.11978284 34.44725884 -0.06486197 17.22367911 0 0 Z " fill="#000000" transform="translate(1179,223)"/>
<path d="M0 0 C14.68137166 14.05560828 19.1456676 30.78934638 20.5625 50.625 C6.7025 50.625 -7.1575 50.625 -21.4375 50.625 C-23.9125 44.19 -23.9125 44.19 -26.4375 37.625 C-31.27222318 29.02993656 -35.98579467 24.75897402 -45.4921875 22.015625 C-51.34362967 20.47764295 -56.84737054 20.1617314 -62.875 20.25 C-64.38441162 20.26522705 -64.38441162 20.26522705 -65.92431641 20.28076172 C-77.12409371 20.51458131 -86.7601588 22.03232645 -95.4375 29.625 C-99.75719383 34.48465556 -100.76764032 39.12595094 -100.6484375 45.5390625 C-100.15355588 50.43289181 -98.28150647 53.73879321 -94.9375 57.25 C-87.34869775 62.95845278 -77.85759275 65.61141555 -68.8125 68 C-66.60807049 68.6015536 -64.40364348 69.20311636 -62.19921875 69.8046875 C-59.94542856 70.41188929 -57.69152281 71.01866232 -55.4375 71.625 C-2.98707321 85.81350284 -2.98707321 85.81350284 12.5625 99.625 C13.19800781 100.16769531 13.83351563 100.71039063 14.48828125 101.26953125 C23.29481127 109.32175463 27.05300106 120.79368504 27.7265625 132.46875 C28.15176144 148.3943831 24.05462166 162.17200122 13.75 174.5 C-1.79085337 190.8164046 -24.89945707 197.31043494 -46.88471985 197.89022827 C-50.00261129 197.93877766 -53.11931745 197.94929567 -56.23754883 197.94067383 C-58.6048046 197.93752685 -60.97078923 197.96102336 -63.33789062 197.98632812 C-77.11752924 198.04437849 -91.27711573 196.86100737 -104.25 191.875 C-104.94101807 191.61895996 -105.63203613 191.36291992 -106.34399414 191.09912109 C-117.22335697 186.9360804 -126.71671868 181.35341655 -135.4375 173.625 C-136.12328125 173.04492188 -136.8090625 172.46484375 -137.515625 171.8671875 C-149.89175533 160.61173039 -156.42424424 144.57169066 -157.45703125 128.14453125 C-157.4375 125.625 -157.4375 125.625 -156.4375 124.625 C-155.05589885 124.5322167 -153.66961962 124.50752957 -152.28491211 124.51147461 C-150.96365578 124.51158791 -150.96365578 124.51158791 -149.6157074 124.51170349 C-148.65842239 124.51686478 -147.70113739 124.52202606 -146.71484375 124.52734375 C-145.25202721 124.52946617 -145.25202721 124.52946617 -143.75965881 124.53163147 C-140.63140857 124.53724867 -137.50322877 124.54980407 -134.375 124.5625 C-132.25976666 124.56751278 -130.14453219 124.57207607 -128.02929688 124.57617188 C-122.83200704 124.58722369 -117.63475855 124.60397854 -112.4375 124.625 C-112.18645508 125.36613037 -111.93541016 126.10726074 -111.67675781 126.87084961 C-111.33483398 127.85061768 -110.99291016 128.83038574 -110.640625 129.83984375 C-110.30708008 130.80784912 -109.97353516 131.77585449 -109.62988281 132.77319336 C-108.12921712 136.36231619 -106.09614765 139.10566951 -103.609375 142.06640625 C-102.4375 143.625 -102.4375 143.625 -102.4375 145.625 C-101.85871094 145.89570313 -101.27992187 146.16640625 -100.68359375 146.4453125 C-98.43329439 147.62720886 -96.54000374 148.98859608 -94.5 150.5 C-80.3601369 160.05901489 -60.89935276 160.08093923 -44.4921875 158.1640625 C-36.98642884 156.65581312 -29.87159417 154.04436353 -25.03515625 147.8203125 C-21.35344562 141.71469985 -20.43931547 135.51518845 -21.86328125 128.5390625 C-23.61174242 122.93969606 -26.41753269 119.61405068 -31.4375 116.625 C-41.87021894 111.42953382 -53.15720568 109.21031601 -64.4680481 106.74490356 C-83.07290803 102.68897215 -101.28897827 98.06191572 -118.4375 89.625 C-119.46101563 89.13257813 -120.48453125 88.64015625 -121.5390625 88.1328125 C-134.3734807 81.59185557 -142.43589393 72.41389646 -147.67578125 59.08203125 C-151.89239729 45.48074157 -150.18363299 29.55588284 -143.8125 16.9375 C-132.26201125 -2.60729254 -112.85183458 -11.21807479 -91.75146484 -16.78808594 C-61.59392202 -24.43724535 -24.21806501 -20.7635914 0 0 Z " fill="#000000" transform="translate(1855.4375,238.375)"/>
<path d="M0 0 C15.84 0 31.68 0 48 0 C48 18.15 48 36.3 48 55 C64.17 55 80.34 55 97 55 C97 67.87 97 80.74 97 94 C80.83 94 64.66 94 48 94 C48 150.1 48 206.2 48 264 C32.16 264 16.32 264 0 264 C0 207.9 0 151.8 0 94 C-16.5 94 -33 94 -50 94 C-50 81.13 -50 68.26 -50 55 C-33.5 55 -17 55 0 55 C0 36.85 0 18.7 0 0 Z " fill="#000000" transform="translate(1959,168)"/>
<path d="M0 0 C0 14.85 0 29.7 0 45 C-5.94 45.66 -11.88 46.32 -18 47 C-40.81667644 52.90788944 -57.20524038 65.75854978 -69.2734375 85.921875 C-69.84320312 86.93765625 -70.41296875 87.9534375 -71 89 C-71.52169266 89.81602692 -72.04338531 90.63205383 -72.58088684 91.47280884 C-74.60481006 96.50324917 -74.43950363 101.13792365 -74.43237305 106.51318359 C-74.4425647 107.66498108 -74.45275635 108.81677856 -74.46325684 110.003479 C-74.4933956 113.80184793 -74.50265447 117.59996469 -74.51171875 121.3984375 C-74.52856471 124.03545979 -74.54671484 126.67247404 -74.56611633 129.30947876 C-74.60972686 135.53537932 -74.63830715 141.7612538 -74.66143972 147.98726046 C-74.68852072 155.07803123 -74.73243035 162.16866686 -74.77772844 169.259341 C-74.87049661 183.83949266 -74.93999184 198.41967562 -75 213 C-90.51 213 -106.02 213 -122 213 C-122 144.03 -122 75.06 -122 4 C-106.82 4 -91.64 4 -76 4 C-74.33376422 5.66623578 -74.83259309 7.68758912 -74.79467773 9.97875977 C-74.7647599 11.57029625 -74.7647599 11.57029625 -74.73423767 13.19398499 C-74.71752518 14.348134 -74.70081268 15.50228302 -74.68359375 16.69140625 C-74.66281265 17.86638168 -74.64203156 19.04135712 -74.62062073 20.25193787 C-74.55499876 24.02206324 -74.4961817 27.79226082 -74.4375 31.5625 C-74.3943268 34.11133573 -74.35071292 36.66016403 -74.30664062 39.20898438 C-74.19930455 45.47257892 -74.0975621 51.73624601 -74 58 C-73.60603027 56.98462158 -73.21206055 55.96924316 -72.80615234 54.9230957 C-72.2746605 53.56972741 -71.74290835 52.21646133 -71.2109375 50.86328125 C-70.95304443 50.19655396 -70.69515137 49.52982666 -70.42944336 48.84289551 C-62.68726812 29.23538658 -47.21962166 12.70189198 -28 4.1875 C-18.52244698 0.4698534 -10.33048964 0 0 0 Z " fill="#000000" transform="translate(1569,219)"/>
<path d="M0 0 C15.51 0 31.02 0 47 0 C47 68.97 47 137.94 47 209 C31.49 209 15.98 209 0 209 C0 140.03 0 71.06 0 0 Z " fill="#000000" transform="translate(1606,223)"/>
<path d="M0 0 C18.48 0 36.96 0 56 0 C56 14.85 56 29.7 56 45 C37.52 45 19.04 45 0 45 C0 30.15 0 15.3 0 0 Z " fill="#000000" transform="translate(1602,136)"/>
</svg>