
<svg width="700" height="320" viewBox="0 0 700 320" fill="none" xmlns="http://www.w3.org/2000/svg">
<g clip-path="url(#clip0_923_290)">
<rect width="700" height="320" fill="white"/>
<rect width="911" height="367" transform="translate(-92 -23)" fill="white"/>
<path d="M84.1073 52.6592H88.6609V78.7306H84.1073V52.6592ZM88.2144 63.7306H107.411V67.6592H88.2144V63.7306ZM106.786 52.6592H111.339V78.7306H106.786V52.6592Z" fill="black"/>
<path d="M133.751 72.124H138.036C137.858 73.4633 137.322 74.7133 136.429 75.7847C135.626 76.8562 134.465 77.6597 132.947 78.2847C131.429 78.9097 129.733 79.1776 127.769 79.1776C125.804 79.1776 123.483 78.7312 121.608 77.9276C119.822 77.124 118.394 75.874 117.411 74.3562C116.429 72.8383 115.894 70.9633 115.894 68.8205C115.894 66.6776 116.429 64.8026 117.411 63.2847C118.394 61.6776 119.822 60.5169 121.519 59.624C123.304 58.7312 125.269 58.374 127.59 58.374C129.911 58.374 131.965 58.8205 133.572 59.624C135.179 60.4276 136.34 61.7669 137.144 63.374C137.947 65.0705 138.215 67.2133 138.126 69.7133H120.447C120.626 70.874 120.983 71.8562 121.519 72.749C122.144 73.6419 122.947 74.3562 124.019 74.8026C125.09 75.3383 126.251 75.5169 127.679 75.5169C129.108 75.5169 130.536 75.249 131.608 74.624C132.679 73.999 133.394 73.1955 133.661 72.124H133.751ZM127.501 61.8562C125.715 61.8562 124.197 62.3026 122.947 63.1955C121.786 64.0883 120.983 65.249 120.626 66.6776H133.572C133.483 65.1597 132.858 63.999 131.786 63.1955C130.715 62.3919 129.286 61.9455 127.501 61.9455V61.8562Z" fill="black"/>
<path d="M158.841 69.1763V70.4263C158.841 70.7835 158.752 71.3192 158.573 72.0335C158.395 72.7478 158.127 73.4621 157.77 74.3549C157.413 75.1585 156.877 75.9621 156.252 76.6763C155.627 77.3906 154.823 78.0156 153.93 78.4621C152.948 78.9085 151.877 79.1763 150.538 79.1763C149.198 79.1763 148.573 79.0871 147.591 78.8192C146.609 78.5513 145.716 78.1049 144.913 77.5692C144.109 76.9442 143.484 76.1406 143.038 75.1585C142.591 74.1763 142.323 72.8371 142.323 71.3192V58.7299H146.788V70.4263C146.788 71.6763 146.966 72.6585 147.413 73.3728C147.859 74.0871 148.395 74.6228 149.198 74.8906C149.913 75.1585 150.805 75.3371 151.788 75.3371C153.216 75.3371 154.377 74.9799 155.448 74.3549C156.43 73.7299 157.234 72.9263 157.859 71.9442C158.484 70.9621 158.841 70.0692 159.02 69.1763H158.841ZM163.038 78.7299H158.573V58.6406H163.038V78.7299Z" fill="black"/>
<path d="M168.036 58.6417H172.501V78.731H168.036V58.6417ZM179.733 62.481C178.304 62.481 177.054 62.7489 175.983 63.3739C174.911 63.9989 174.108 64.7132 173.483 65.606C172.858 66.4989 172.411 67.3917 172.233 68.1953V65.9632C172.233 65.6953 172.233 65.2489 172.501 64.6239C172.679 63.9989 172.947 63.3739 173.215 62.6596C173.572 61.9453 174.018 61.231 174.554 60.5167C175.09 59.8025 175.804 59.2667 176.697 58.8203C177.501 58.3739 178.572 58.1953 179.733 58.1953V62.481Z" fill="black"/>
<path d="M188.393 50.1597V54.4454H183.036V50.1597H188.393ZM183.393 58.6418H187.947V78.7311H183.393V58.6418Z" fill="black"/>
<path d="M192.408 72.124H196.516C196.694 73.1062 197.319 73.999 198.212 74.624C199.105 75.249 200.266 75.6062 201.783 75.6062C203.301 75.6062 203.48 75.5169 204.105 75.249C204.641 75.0705 205.087 74.7133 205.266 74.3562C205.533 73.999 205.623 73.5526 205.623 73.1062C205.623 72.6597 205.444 72.0347 205.087 71.7669C204.73 71.4097 204.283 71.1419 203.658 70.9633C203.033 70.7847 202.23 70.5169 201.248 70.4276C200.266 70.1597 199.283 69.8919 198.301 69.624C197.319 69.3562 196.426 68.999 195.712 68.5526C194.998 68.1062 194.283 67.5705 193.837 66.8562C193.391 66.1419 193.212 65.3383 193.212 64.3562C193.212 63.374 193.391 62.6597 193.837 61.8562C194.283 61.1419 194.819 60.5169 195.623 59.9812C196.337 59.4455 197.23 59.0883 198.301 58.8205C199.283 58.5526 200.444 58.374 201.605 58.374C203.391 58.374 204.819 58.6419 205.98 59.1776C207.141 59.7133 208.033 60.5169 208.658 61.5883C209.283 62.5705 209.551 63.8205 209.551 65.0705H205.623C205.444 63.999 204.998 63.1955 204.373 62.749C203.748 62.3026 202.855 62.0347 201.605 62.0347C200.355 62.0347 199.462 62.2133 198.748 62.6597C198.123 63.1062 197.766 63.6419 197.766 64.4455C197.766 65.249 197.944 65.4276 198.391 65.7847C198.837 66.1419 199.373 66.4097 200.176 66.6776C200.98 66.9455 201.873 67.124 202.944 67.3919C203.926 67.6597 204.819 67.9276 205.712 68.1955C206.605 68.4633 207.319 68.8205 208.033 69.2669C208.748 69.7133 209.283 70.249 209.641 70.874C210.087 71.5883 210.266 72.3919 210.266 73.374C210.266 74.3562 209.908 75.6955 209.283 76.5883C208.658 77.4812 207.676 78.1955 206.426 78.6419C205.176 79.0883 203.658 79.3562 201.962 79.3562C200.266 79.3562 199.105 79.1776 198.033 78.8205C196.962 78.4633 195.98 78.0169 195.266 77.4812C194.551 76.9455 193.926 76.3205 193.569 75.6955C193.123 75.0705 192.855 74.4454 192.766 73.8204C192.587 73.1954 192.587 72.749 192.587 72.3026L192.408 72.124Z" fill="black"/>
<path d="M212.769 58.6408H226.965V62.3015H212.769V58.6408ZM217.59 53.2837H222.144V78.7301H217.59V53.2837Z" fill="black"/>
<path d="M56.2483 43.106V64.6238H51.6055V51.1417L46.9626 53.8202L44.4626 55.2488L42.3197 56.4988V72.6595L44.4626 73.9095L46.9626 75.3381V64.5345H51.6055V83.3738L51.2483 83.1952L46.9626 80.6952L43.2126 78.5524L42.3197 78.0167L37.6769 75.3381V53.8202L42.3197 51.1417L43.2126 50.606L46.9626 48.4631L51.2483 45.9631L51.6055 45.7845L56.2483 43.106Z" fill="black"/>
<path d="M74.8179 53.9073V75.4251L70.175 78.1037L69.2822 78.6394L65.5322 80.7823L61.2465 83.2823L60.8893 83.4609L56.2465 86.1394V64.6216H60.8893V78.1037L65.5322 75.4251L68.0322 73.9966L70.175 72.7466V56.5859L68.0322 55.3359L65.5322 53.9073V64.7109H60.8893V45.8716L61.2465 46.0502L65.5322 48.5502L69.2822 50.693L70.175 51.2287L74.8179 53.9073Z" fill="black"/>
<path d="M779.308 119.079L599.954 235.278M779.308 119.079L546.84 95.3331M779.308 119.079L777.667 87.1025M599.954 235.278L560.955 215.354M599.954 235.278L638.952 255.202M599.954 235.278L420.599 351.478M560.955 215.354L675.903 140.882L548.542 128.497M560.955 215.354L521.956 195.43L432.319 253.504L415.94 214.406L548.542 128.497M560.955 215.354L403.123 317.61M560.955 215.354L559.31 183.302M548.542 128.497L546.84 95.3331M403.123 317.61L350.421 211.664M403.123 317.61L401.459 285.196M350.421 211.664L532.275 93.8454L546.84 95.3331M350.421 211.664L348.81 180.276M638.952 255.202L796.785 152.947L849.216 259.114M638.952 255.202L677.951 275.126M638.952 255.202L524.004 329.674L651.365 342.06L783.967 256.151L767.588 217.052M638.952 255.202L637.337 223.738M420.599 351.478L667.632 376.711M420.599 351.478L418.958 319.502M667.632 376.711L849.216 259.114M667.632 376.711L666.007 345.042M849.216 259.114L847.568 227.013M677.951 275.126L767.588 217.052M677.951 275.126L676.286 242.676M767.588 217.052L765.97 185.519" stroke="#849437" stroke-opacity="0.4" stroke-width="0.671218"/>
<path d="M530.554 62.1696L777.588 87.4029L598.233 203.602L559.234 183.679L674.182 109.206L546.821 96.8208L414.22 182.73L430.598 221.828L520.235 163.755L559.234 183.679L401.402 285.934L348.701 179.988L530.554 62.1696Z" fill="black"/>
<path fill-rule="evenodd" clip-rule="evenodd" d="M637.232 223.526L598.233 203.602L418.878 319.802L665.912 345.035L847.765 227.217L795.064 121.271L637.232 223.526ZM637.232 223.526L676.231 243.45L765.868 185.377L782.246 224.475L649.645 310.384L522.284 297.999L637.232 223.526Z" fill="black"/>
<path d="M549.576 2.51025L297.807 167.201L355.735 495.729" stroke="url(#paint0_angular_923_290)" stroke-opacity="0.4"/>
<path d="M499.118 -28.8257L247.35 135.866L305.278 464.393" stroke="url(#paint1_angular_923_290)" stroke-opacity="0.4"/>
<path d="M449.239 -61.896L197.47 102.795L255.399 431.323" stroke="url(#paint2_angular_923_290)" stroke-opacity="0.4"/>
<path d="M401.087 -96.1206L149.319 68.5706L207.247 397.098" stroke="url(#paint3_angular_923_290)" stroke-opacity="0.4"/>
<path d="M348.593 -118.653L96.8241 46.0384L154.752 374.566" stroke="url(#paint4_angular_923_290)" stroke-opacity="0.4"/>
<path d="M290.906 -135.99L39.1378 28.7015L97.066 357.229" stroke="url(#paint5_angular_923_290)" stroke-opacity="0.4"/>
<path d="M223.22 -177L-28.5486 -12.3088L29.3796 316.219" stroke="url(#paint6_angular_923_290)" stroke-width="0.671218"/>
</g>
<defs>
<radialGradient id="paint0_angular_923_290" cx="0" cy="0" r="1" gradientUnits="userSpaceOnUse" gradientTransform="translate(452.656 249.12) rotate(80) scale(226.033 138.271)">
<stop stop-opacity="0"/>
<stop offset="0.21" stop-color="#CDF138"/>
<stop offset="0.756855" stop-opacity="0"/>
</radialGradient>
<radialGradient id="paint1_angular_923_290" cx="0" cy="0" r="1" gradientUnits="userSpaceOnUse" gradientTransform="translate(402.198 217.784) rotate(80) scale(226.033 138.271)">
<stop stop-opacity="0"/>
<stop offset="0.21" stop-color="#CDF138"/>
<stop offset="0.756855" stop-opacity="0"/>
</radialGradient>
<radialGradient id="paint2_angular_923_290" cx="0" cy="0" r="1" gradientUnits="userSpaceOnUse" gradientTransform="translate(352.319 184.713) rotate(80) scale(226.033 138.271)">
<stop stop-opacity="0"/>
<stop offset="0.21" stop-color="#CDF138"/>
<stop offset="0.756855" stop-opacity="0"/>
</radialGradient>
<radialGradient id="paint3_angular_923_290" cx="0" cy="0" r="1" gradientUnits="userSpaceOnUse" gradientTransform="translate(304.167 150.489) rotate(80) scale(226.033 138.271)">
<stop stop-opacity="0"/>
<stop offset="0.21" stop-color="#CDF138"/>
<stop offset="0.756855" stop-opacity="0"/>
</radialGradient>
<radialGradient id="paint4_angular_923_290" cx="0" cy="0" r="1" gradientUnits="userSpaceOnUse" gradientTransform="translate(251.672 127.956) rotate(80) scale(226.033 138.271)">
<stop stop-opacity="0"/>
<stop offset="0.21" stop-color="#CDF138"/>
<stop offset="0.756855" stop-opacity="0"/>
</radialGradient>
<radialGradient id="paint5_angular_923_290" cx="0" cy="0" r="1" gradientUnits="userSpaceOnUse" gradientTransform="translate(193.986 110.62) rotate(80) scale(226.033 138.271)">
<stop stop-opacity="0"/>
<stop offset="0.21" stop-color="#CDF138"/>
<stop offset="0.756855" stop-opacity="0"/>
</radialGradient>
<radialGradient id="paint6_angular_923_290" cx="0" cy="0" r="1" gradientUnits="userSpaceOnUse" gradientTransform="translate(126.3 69.6093) rotate(80) scale(226.033 138.271)">
<stop stop-opacity="0"/>
<stop offset="0.386855" stop-color="white" stop-opacity="0.5"/>
<stop offset="0.756855" stop-opacity="0"/>
</radialGradient>
<clipPath id="clip0_923_290">
<rect width="700" height="320" fill="white"/>
</clipPath>
</defs>
</svg>
