<svg width="467" height="107" viewBox="0 0 467 107" fill="none" xmlns="http://www.w3.org/2000/svg">
<path d="M45.7848 0V53.0488H34.3386V19.8107L22.8924 26.4143L16.7291 29.9362L11.4462 33.0179V72.8595L16.7291 75.9412L22.8924 79.4631V52.8287H34.3386V99.2739L33.4581 98.8336L22.8924 92.6703L13.6474 87.3874L11.4462 86.0667L0 79.4631V26.4143L11.4462 19.8107L13.6474 18.49L22.8924 13.2072L33.4581 7.04382L34.3386 6.60358L45.7848 0Z" fill="black"/>
<path d="M91.5641 26.6292V79.678L80.1179 86.2816L77.9167 87.6023L68.6717 92.8852L58.106 99.0485L57.2255 99.4888L45.7793 106.092V53.0436H57.2255V86.2816L68.6717 79.678L74.8351 76.1561L80.1179 73.0744V33.2328L74.8351 30.1511L68.6717 26.6292V53.2637H57.2255V6.81848L58.106 7.25872L68.6717 13.4221L77.9167 18.7049L80.1179 20.0256L91.5641 26.6292Z" fill="black"/>
<path d="M114.564 23.218H125.791V87.4929H114.564V23.218ZM124.69 50.5128H172.016V60.1981H124.69V50.5128ZM170.475 23.218H181.701V87.4929H170.475V23.218Z" fill="black"/>
<path d="M236.952 71.206H247.517C247.077 74.5078 245.756 77.5895 243.555 80.2309C241.574 82.8723 238.713 84.8534 234.971 86.3942C231.229 87.9351 227.046 88.5954 222.204 88.5954C217.361 88.5954 211.638 87.4949 207.015 85.5138C202.613 83.5327 199.091 80.451 196.67 76.709C194.248 72.967 192.928 68.3445 192.928 63.0616C192.928 57.7787 194.248 53.1562 196.67 49.4142C199.091 45.452 202.613 42.5905 206.795 40.3893C211.198 38.1881 216.04 37.3076 221.763 37.3076C227.486 37.3076 232.549 38.4082 236.511 40.3893C240.474 42.3704 243.335 45.6722 245.316 49.6343C247.297 53.8166 247.958 59.0994 247.737 65.2628H204.154C204.594 68.1243 205.475 70.5456 206.795 72.7468C208.336 74.948 210.317 76.709 212.959 77.8096C215.6 79.1303 218.462 79.5705 221.983 79.5705C225.505 79.5705 229.027 78.9102 231.669 77.3694C234.31 75.8285 236.071 73.8474 236.731 71.206H236.952ZM221.543 45.8923C217.141 45.8923 213.399 46.9929 210.317 49.1941C207.456 51.3953 205.475 54.2568 204.594 57.7787H236.511C236.291 54.0367 234.75 51.1751 232.109 49.1941C229.468 47.213 225.946 46.1124 221.543 46.1124V45.8923Z" fill="black"/>
<path d="M298.808 63.9389V67.0206C298.808 67.9011 298.588 69.2218 298.148 70.9828C297.707 72.7437 297.047 74.5047 296.167 76.7059C295.286 78.6869 293.965 80.668 292.425 82.429C290.884 84.1899 288.903 85.7308 286.701 86.8314C284.28 87.932 281.639 88.5923 278.337 88.5923C275.035 88.5923 273.494 88.3722 271.073 87.7118C268.652 87.0515 266.45 85.9509 264.469 84.6302C262.488 83.0893 260.947 81.1082 259.847 78.6869C258.746 76.2656 258.086 72.9638 258.086 69.2218V38.185H269.092V67.0206C269.092 70.1023 269.532 72.5236 270.633 74.2845C271.733 76.0455 273.054 77.3662 275.035 78.0266C276.796 78.6869 278.997 79.1272 281.419 79.1272C284.941 79.1272 287.802 78.2467 290.443 76.7059C292.865 75.165 294.846 73.184 296.387 70.7626C297.928 68.3413 298.808 66.1401 299.248 63.9389H298.808ZM309.154 87.4917H298.148V37.9648H309.154V87.4917Z" fill="black"/>
<path d="M321.478 37.9673H332.484V87.4942H321.478V37.9673ZM350.313 47.4324C346.791 47.4324 343.71 48.0928 341.068 49.6336C338.427 51.1745 336.446 52.9354 334.905 55.1366C333.364 57.3378 332.263 59.539 331.823 61.5201V56.0171C331.823 55.3567 331.823 54.2561 332.484 52.7153C332.924 51.1745 333.584 49.6336 334.244 47.8727C335.125 46.1117 336.226 44.3508 337.546 42.5898C338.867 40.8289 340.628 39.5081 342.829 38.4075C344.81 37.3069 347.452 36.8667 350.313 36.8667V47.4324Z" fill="black"/>
<path d="M371.664 17.0568V27.6225H358.457V17.0568H371.664ZM359.337 37.9681H370.564V87.495H359.337V37.9681Z" fill="black"/>
<path d="M381.562 71.206H391.688C392.128 73.6273 393.669 75.8285 395.87 77.3694C398.071 78.9102 400.933 79.7907 404.675 79.7907C408.417 79.7907 408.857 79.5705 410.398 78.9102C411.719 78.4699 412.819 77.5895 413.26 76.709C413.92 75.8285 414.14 74.7279 414.14 73.6273C414.14 72.5267 413.7 70.9859 412.819 70.3255C411.939 69.4451 410.838 68.7847 409.298 68.3444C407.757 67.9042 405.776 67.2439 403.354 67.0237C400.933 66.3634 398.512 65.703 396.09 65.0427C393.669 64.3823 391.468 63.5018 389.707 62.4012C387.946 61.3006 386.185 59.9799 385.084 58.219C383.984 56.458 383.544 54.4769 383.544 52.0556C383.544 49.6343 383.984 47.8734 385.084 45.8923C386.185 44.1313 387.506 42.5905 389.487 41.2698C391.248 39.949 393.449 39.0686 396.09 38.4082C398.512 37.7479 401.373 37.3076 404.235 37.3076C408.637 37.3076 412.159 37.968 415.021 39.2887C417.882 40.6094 420.083 42.5905 421.624 45.2319C423.165 47.6532 423.825 50.7349 423.825 53.8166H414.14C413.7 51.1751 412.599 49.1941 411.058 48.0935C409.518 46.9929 407.316 46.3325 404.235 46.3325C401.153 46.3325 398.952 46.7727 397.191 47.8733C395.65 48.9739 394.77 50.2947 394.77 52.2757C394.77 54.2568 395.21 54.697 396.31 55.5775C397.411 56.458 398.732 57.1184 400.713 57.7787C402.694 58.4391 404.895 58.8793 407.537 59.5397C409.958 60.2 412.159 60.8604 414.36 61.5208C416.561 62.1811 418.322 63.0616 420.083 64.1622C421.844 65.2628 423.165 66.5835 424.046 68.1243C425.146 69.8853 425.586 71.8664 425.586 74.2877C425.586 76.709 424.706 80.0108 423.165 82.212C421.624 84.4132 419.203 86.1741 416.121 87.2747C413.04 88.3753 409.298 89.0357 405.115 89.0357C400.933 89.0357 398.071 88.5954 395.43 87.715C392.789 86.8345 390.367 85.7339 388.606 84.4132C386.845 83.0925 385.305 81.5516 384.424 80.0108C383.323 78.4699 382.663 76.9291 382.443 75.3883C382.003 73.8474 382.003 72.7468 382.003 71.6462L381.562 71.206Z" fill="black"/>
<path d="M431.76 37.9653H466.759V46.9902H431.76V37.9653ZM443.646 24.7582H454.872V87.4922H443.646V24.7582Z" fill="black"/>
</svg>
