<svg width="91" height="106" viewBox="0 0 91 106" fill="none" xmlns="http://www.w3.org/2000/svg">
<g clip-path="url(#clip0_1094_563)">
<path d="M45.3639 0.102661V53.1514H33.9177V19.9134L22.4715 26.517L16.3082 30.0389L11.0253 33.1206V72.9622L16.3082 76.0439L22.4715 79.5658V52.9313H33.9177V99.3765L33.0372 98.9363L22.4715 92.7729L13.2265 87.4901L11.0253 86.1694L-0.420898 79.5658V26.517L11.0253 19.9134L13.2265 18.5927L22.4715 13.3098L33.0372 7.14648L33.9177 6.70624L45.3639 0.102661Z" fill="white"/>
<path d="M91.1432 26.7319V79.7807L79.697 86.3842L77.4958 87.705L68.2508 92.9878L57.6851 99.1512L56.8046 99.5914L45.3584 106.195V53.1462H56.8046V86.3842L68.2508 79.7807L74.4142 76.2588L79.697 73.1771V33.3355L74.4142 30.2538L68.2508 26.7319V53.3663H56.8046V6.92114L57.6851 7.36138L68.2508 13.5247L77.4958 18.8076L79.697 20.1283L91.1432 26.7319Z" fill="white"/>
</g>
<defs>
<clipPath id="clip0_1094_563">
<rect width="91" height="106" fill="white"/>
</clipPath>
</defs>
</svg>
