<svg width="515" height="143" viewBox="0 0 515 143" fill="none" xmlns="http://www.w3.org/2000/svg">
<rect width="514.759" height="142.092" fill="white"/>
<path d="M69.7848 18V71.0488H58.3386V37.8107L46.8924 44.4143L40.7291 47.9362L35.4462 51.0179V90.8595L40.7291 93.9412L46.8924 97.4631V70.8287H58.3386V117.274L57.4581 116.834L46.8924 110.67L37.6474 105.387L35.4462 104.067L24 97.4631V44.4143L35.4462 37.8107L37.6474 36.49L46.8924 31.2072L57.4581 25.0438L58.3386 24.6036L69.7848 18Z" fill="black"/>
<path d="M115.564 44.6292V97.678L104.118 104.282L101.917 105.602L92.6717 110.885L82.106 117.049L81.2255 117.489L69.7793 124.092V71.0436H81.2255V104.282L92.6717 97.678L98.8351 94.1561L104.118 91.0744V51.2328L98.8351 48.1511L92.6717 44.6292V71.2637H81.2255V24.8185L82.106 25.2587L92.6717 31.4221L101.917 36.7049L104.118 38.0256L115.564 44.6292Z" fill="black"/>
<path d="M138.564 41.218H149.791V105.493H138.564V41.218ZM148.69 68.5128H196.016V78.1981H148.69V68.5128ZM194.475 41.218H205.701V105.493H194.475V41.218Z" fill="black"/>
<path d="M260.952 89.206H271.517C271.077 92.5078 269.756 95.5895 267.555 98.2309C265.574 100.872 262.713 102.853 258.971 104.394C255.229 105.935 251.046 106.595 246.204 106.595C241.361 106.595 235.638 105.495 231.015 103.514C226.613 101.533 223.091 98.451 220.67 94.709C218.248 90.967 216.928 86.3445 216.928 81.0616C216.928 75.7787 218.248 71.1562 220.67 67.4142C223.091 63.452 226.613 60.5905 230.795 58.3893C235.198 56.1881 240.04 55.3076 245.763 55.3076C251.486 55.3076 256.549 56.4082 260.511 58.3893C264.474 60.3704 267.335 63.6722 269.316 67.6343C271.297 71.8166 271.958 77.0994 271.737 83.2628H228.154C228.594 86.1243 229.475 88.5456 230.795 90.7468C232.336 92.948 234.317 94.709 236.959 95.8096C239.6 97.1303 242.462 97.5705 245.983 97.5705C249.505 97.5705 253.027 96.9102 255.669 95.3694C258.31 93.8285 260.071 91.8474 260.731 89.206H260.952ZM245.543 63.8923C241.141 63.8923 237.399 64.9929 234.317 67.1941C231.456 69.3953 229.475 72.2568 228.594 75.7787H260.511C260.291 72.0367 258.75 69.1751 256.109 67.1941C253.468 65.213 249.946 64.1124 245.543 64.1124V63.8923Z" fill="black"/>
<path d="M322.808 81.9389V85.0206C322.808 85.9011 322.588 87.2218 322.148 88.9828C321.707 90.7437 321.047 92.5047 320.167 94.7059C319.286 96.6869 317.965 98.668 316.425 100.429C314.884 102.19 312.903 103.731 310.701 104.831C308.28 105.932 305.639 106.592 302.337 106.592C299.035 106.592 297.494 106.372 295.073 105.712C292.652 105.051 290.45 103.951 288.469 102.63C286.488 101.089 284.947 99.1082 283.847 96.6869C282.746 94.2656 282.086 90.9638 282.086 87.2218V56.185H293.092V85.0206C293.092 88.1023 293.532 90.5236 294.633 92.2845C295.733 94.0455 297.054 95.3662 299.035 96.0266C300.796 96.6869 302.997 97.1272 305.419 97.1272C308.941 97.1272 311.802 96.2467 314.443 94.7059C316.865 93.165 318.846 91.184 320.387 88.7626C321.928 86.3413 322.808 84.1401 323.248 81.9389H322.808ZM333.154 105.492H322.148V55.9648H333.154V105.492Z" fill="black"/>
<path d="M345.478 55.9673H356.484V105.494H345.478V55.9673ZM374.313 65.4324C370.791 65.4324 367.71 66.0928 365.068 67.6336C362.427 69.1745 360.446 70.9354 358.905 73.1366C357.364 75.3378 356.263 77.539 355.823 79.5201V74.0171C355.823 73.3567 355.823 72.2561 356.484 70.7153C356.924 69.1745 357.584 67.6336 358.244 65.8727C359.125 64.1117 360.226 62.3508 361.546 60.5898C362.867 58.8289 364.628 57.5081 366.829 56.4075C368.81 55.3069 371.452 54.8667 374.313 54.8667V65.4324Z" fill="black"/>
<path d="M395.664 35.0568V45.6225H382.457V35.0568H395.664ZM383.337 55.9681H394.564V105.495H383.337V55.9681Z" fill="black"/>
<path d="M405.562 89.206H415.688C416.128 91.6273 417.669 93.8285 419.87 95.3694C422.071 96.9102 424.933 97.7907 428.675 97.7907C432.417 97.7907 432.857 97.5705 434.398 96.9102C435.719 96.4699 436.819 95.5895 437.26 94.709C437.92 93.8285 438.14 92.7279 438.14 91.6273C438.14 90.5267 437.7 88.9859 436.819 88.3255C435.939 87.4451 434.838 86.7847 433.298 86.3444C431.757 85.9042 429.776 85.2439 427.354 85.0237C424.933 84.3634 422.512 83.703 420.09 83.0427C417.669 82.3823 415.468 81.5018 413.707 80.4012C411.946 79.3006 410.185 77.9799 409.084 76.219C407.984 74.458 407.544 72.4769 407.544 70.0556C407.544 67.6343 407.984 65.8734 409.084 63.8923C410.185 62.1313 411.506 60.5905 413.487 59.2698C415.248 57.949 417.449 57.0686 420.09 56.4082C422.512 55.7479 425.373 55.3076 428.235 55.3076C432.637 55.3076 436.159 55.968 439.021 57.2887C441.882 58.6094 444.083 60.5905 445.624 63.2319C447.165 65.6532 447.825 68.7349 447.825 71.8166H438.14C437.7 69.1751 436.599 67.1941 435.058 66.0935C433.518 64.9929 431.316 64.3325 428.235 64.3325C425.153 64.3325 422.952 64.7727 421.191 65.8733C419.65 66.9739 418.77 68.2947 418.77 70.2757C418.77 72.2568 419.21 72.697 420.31 73.5775C421.411 74.458 422.732 75.1184 424.713 75.7787C426.694 76.4391 428.895 76.8793 431.537 77.5397C433.958 78.2 436.159 78.8604 438.36 79.5208C440.561 80.1811 442.322 81.0616 444.083 82.1622C445.844 83.2628 447.165 84.5835 448.046 86.1243C449.146 87.8853 449.586 89.8664 449.586 92.2877C449.586 94.709 448.706 98.0108 447.165 100.212C445.624 102.413 443.203 104.174 440.121 105.275C437.04 106.375 433.298 107.036 429.115 107.036C424.933 107.036 422.071 106.595 419.43 105.715C416.789 104.834 414.367 103.734 412.606 102.413C410.845 101.092 409.305 99.5516 408.424 98.0108C407.323 96.4699 406.663 94.9291 406.443 93.3883C406.003 91.8474 406.003 90.7468 406.003 89.6462L405.562 89.206Z" fill="black"/>
<path d="M455.76 55.9653H490.759V64.9902H455.76V55.9653ZM467.646 42.7582H478.872V105.492H467.646V42.7582Z" fill="black"/>
</svg>
