<svg width="91" height="107" viewBox="0 0 91 107" fill="none" xmlns="http://www.w3.org/2000/svg">
<g clip-path="url(#clip0_1094_517)">
<path d="M45.3639 0.194946V53.2437H33.9177V20.0057L22.4715 26.6093L16.3082 30.1312L11.0253 33.2129V73.0545L16.3082 76.1361L22.4715 79.6581V53.0236H33.9177V99.4688L33.0372 99.0286L22.4715 92.8652L13.2265 87.5824L11.0253 86.2616L-0.420898 79.6581V26.6093L11.0253 20.0057L13.2265 18.685L22.4715 13.4021L33.0372 7.23877L33.9177 6.79853L45.3639 0.194946Z" fill="black"/>
<path d="M91.1432 26.8242V79.8729L79.697 86.4765L77.4958 87.7973L68.2508 93.0801L57.6851 99.2435L56.8046 99.6837L45.3584 106.287V53.2385H56.8046V86.4765L68.2508 79.8729L74.4142 76.351L79.697 73.2694V33.4278L74.4142 30.3461L68.2508 26.8242V53.4586H56.8046V7.01343L57.6851 7.45367L68.2508 13.617L77.4958 18.8999L79.697 20.2206L91.1432 26.8242Z" fill="black"/>
</g>
<defs>
<clipPath id="clip0_1094_517">
<rect width="91" height="106" fill="white" transform="translate(0 0.0922852)"/>
</clipPath>
</defs>
</svg>
